<?xml version="1.0" encoding="utf-8"?>
<!-- Generator: Adobe Illustrator 17.0.0, SVG Export Plug-In . SVG Version: 6.00 Build 0)  -->
<!DOCTYPE svg PUBLIC "-//W3C//DTD SVG 1.1//EN" "http://www.w3.org/Graphics/SVG/1.1/DTD/svg11.dtd">
<svg version="1.1" id="Layer_1" xmlns="http://www.w3.org/2000/svg" xmlns:xlink="http://www.w3.org/1999/xlink" x="0px" y="0px"
	 width="11px" height="6.132px" viewBox="0 0 11 6.132" enable-background="new 0 0 11 6.132" xml:space="preserve">
<path opacity="0.3" enable-background="new    " d="M5.947,5.946l4.868-4.868C10.934,0.959,11,0.8,11,0.631
	s-0.066-0.327-0.185-0.447c-0.119-0.119-0.278-0.185-0.447-0.185c-0.169,0-0.327,0.066-0.447,0.185L5.5,4.606L1.078,0.184
	C0.959,0.065,0.799-0.001,0.632-0.001c-0.169,0-0.328,0.066-0.447,0.185S0,0.462,0,0.631s0.066,0.327,0.185,0.447l4.868,4.869
	C5.172,6.067,5.331,6.132,5.5,6.132C5.669,6.131,5.828,6.065,5.947,5.946z"/>
</svg>
