<?xml version="1.0" encoding="utf-8"?>
<!-- Generator: Adobe Illustrator 17.0.0, SVG Export Plug-In . SVG Version: 6.00 Build 0)  -->
<!DOCTYPE svg PUBLIC "-//W3C//DTD SVG 1.1//EN" "http://www.w3.org/Graphics/SVG/1.1/DTD/svg11.dtd">
<svg version="1.1" id="Layer_1" xmlns="http://www.w3.org/2000/svg" xmlns:xlink="http://www.w3.org/1999/xlink" x="0px" y="0px"
	 width="55px" height="40.643px" viewBox="423.565 222.314 55 40.643" enable-background="new 423.565 222.314 55 40.643"
	 xml:space="preserve">
<g opacity="0.3">
	<path d="M450.157,249.701h-10.91v6.588h10.91V249.701z M440.507,255.03v-4.07h8.392v4.07H440.507z"/>
	<path d="M474.151,261.602v-28.539h2.581v-1.356h-28.919v1.356h1.749v10.394h-11.317l0.141-0.378c0.85-2.273,1.281-4.739,1.281-7.33
		c0-3.526-0.8-6.85-2.253-9.362c-1.515-2.627-3.573-4.074-5.795-4.074c-2.219,0-4.28,1.447-5.803,4.074
		c-1.453,2.511-2.253,5.83-2.253,9.345c0,3.524,0.797,6.843,2.244,9.345c1.1,1.904,2.579,3.256,4.163,3.806l0.188,0.065v12.653
		h-5.329v1.356h53.734v-1.356H474.151z M434.823,261.602h-3.308v-12.456l0.268-0.011c0.936-0.039,1.814-0.313,2.61-0.815l0.429-0.27
		V261.602z M431.812,247.778l-0.297,0.018v-2.849l5.258-8.589l-1.148-0.706l-4.111,6.692v-9.637h-1.356v6.076l-1.835-3.115
		l-1.16,0.689l2.995,5.097v6.079l-0.411-0.218c-2.848-1.513-4.837-6.278-4.837-11.589c0-6.539,3.072-12.063,6.708-12.063
		c1.789,0,3.476,1.294,4.749,3.643c1.242,2.292,1.926,5.282,1.926,8.42C438.296,242.153,435.387,247.56,431.812,247.778z
		 M459.483,261.602h-4.975v-10.424h4.975V261.602z M463.469,261.602h-2.866V249.92h-7.213v11.683h-17.211V246.78l0.066-0.078
		c0.479-0.565,0.845-1.078,1.153-1.615l0.01-0.016c0.006-0.009,0.012-0.02,0.019-0.031c0.048-0.082,0.137-0.235,0.322-0.235h25.719
		V261.602z M472.796,261.602h-7.971v-16.798h3.997v-1.356h-17.903v-10.386h21.878V261.602z"/>
</g>
</svg>
