<?xml version="1.0" encoding="utf-8"?>
<!-- Generator: Adobe Illustrator 17.0.0, SVG Export Plug-In . SVG Version: 6.00 Build 0)  -->
<!DOCTYPE svg PUBLIC "-//W3C//DTD SVG 1.1//EN" "http://www.w3.org/Graphics/SVG/1.1/DTD/svg11.dtd">
<svg version="1.1" id="Layer_1" xmlns="http://www.w3.org/2000/svg" xmlns:xlink="http://www.w3.org/1999/xlink" x="0px" y="0px"
	 width="145px" height="155px" viewBox="348.445 220.14 145 155" enable-background="new 348.445 220.14 145 155"
	 xml:space="preserve">
<g>
	<path fill="#BBA72C" d="M350.451,328.382l37.569,29.258c2.148,2.046,4.671,3.322,7.299,3.69l0.017,0.002
		c1.095,0.242,2.199,0.366,3.284,0.371l32.177,4.893c4.908,0.746,9.911,1.124,14.872,1.124h33.845v7.419h13.924v-60.913h-13.924
		v6.665c-3.509-2.481-13.686-9.089-22.522-9.089c-3.063,0-5.687,0.808-7.8,2.4c-4.192,3.16-9.587,4.9-15.191,4.9h-9.648
		c-6.69,0-12.808,3.17-16.364,8.479c-1.788,2.669-2.23,4.925-1.316,6.704c0.525,1.02,1.444,1.775,2.576,2.331
		c-0.401,0.002-0.805,0.003-1.212,0.003c-6.409,0-15.415-0.26-19.67-2.507l-21.475-13.125c-5.325-2.8-8.675-3.995-11.2-3.995
		c-2.849,0-4.496,1.496-6.229,3.911C347.783,323.246,348.218,326.529,350.451,328.382z M481.072,367.721L481.072,367.721l0-45.679
		l0,0v-6.257h10.808v57.797h-10.808V367.721z M350.728,321.814c1.519-2.115,2.76-3.262,4.964-3.262
		c2.222,0,5.446,1.173,10.452,3.804l21.471,13.123c4.554,2.42,13.836,2.7,20.422,2.7c2.437,0,4.776-0.043,6.84-0.08
		c0.606-0.011,1.189-0.022,1.744-0.031c1.384,0.041,2.39-0.015,2.566-0.026h24.01c4.158,0,9.113,1.152,9.113,6.641
		c0,0.43,0.349,0.779,0.779,0.779s0.779-0.349,0.779-0.779c0-5.287-3.79-8.198-10.671-8.198h-24.034l0,0
		c-0.751,0-1.601,0.01-2.53,0.025c-4.563-0.143-7.688-1.213-8.573-2.935c-0.636-1.238-0.224-2.962,1.225-5.125
		c3.267-4.877,8.9-7.789,15.07-7.789h9.648c5.94,0,11.668-1.852,16.129-5.214c1.837-1.384,4.145-2.086,6.862-2.086
		c9.242,0,20.536,7.994,22.522,9.455v43.347h-33.845c-4.882,0-9.807-0.372-14.638-1.107l-32.293-4.911h-0.059
		c-1,0-2.02-0.114-3.033-0.34l-0.11-0.018c-2.314-0.325-4.551-1.466-6.468-3.301l-0.06-0.052l-37.582-29.267
		C349.84,325.85,349.524,323.492,350.728,321.814z"/>
	<path fill="#BBA72C" d="M401.704,298.245c-0.152,0.152-0.351,0.228-0.551,0.228s-0.399-0.076-0.551-0.228l-7.419-7.419
		c-0.304-0.304-0.304-0.797,0-1.102c0.304-0.304,0.797-0.304,1.102,0l7.419,7.419C402.008,297.447,402.008,297.941,401.704,298.245z
		"/>
	<path fill="#BBA72C" d="M409.123,289.724c0.304,0.304,0.304,0.797,0,1.102c-0.152,0.152-0.351,0.228-0.551,0.228
		s-0.399-0.076-0.551-0.228l-7.419-7.419c-0.304-0.304-0.304-0.797,0-1.102c0.304-0.304,0.797-0.304,1.102,0L409.123,289.724z"/>
	<path fill="#BBA72C" d="M451.395,248.231c0-9.975-8.116-18.091-18.091-18.091c-4.088,0-7.862,1.364-10.895,3.66
		c-2.064-0.784-4.22-1.186-6.418-1.186c-9.976,0-18.091,8.116-18.091,18.091c0,3.105,0.81,6.162,2.349,8.882l-23.04,23.042
		c-0.93,0.928-1.484,2.129-1.559,3.379c-0.078,1.285,0.356,2.47,1.22,3.334l20.557,20.559c0.793,0.792,1.875,1.227,3.047,1.227
		c1.335,0,2.672-0.571,3.668-1.566l20.962-20.964v4.15c0,0.207,0.082,0.405,0.228,0.551l4.395,4.395l-4.395,4.395
		c-0.146,0.146-0.228,0.344-0.228,0.551v2.473c0,0.204,0.08,0.4,0.223,0.545l7.274,7.42c0.145,0.148,0.342,0.232,0.549,0.234
		c0.002,0,0.005,0,0.008,0c0.204,0,0.4-0.08,0.545-0.223l7.565-7.419c0.149-0.146,0.234-0.347,0.234-0.556V264.35
		C447.367,261.355,451.395,255.256,451.395,248.231z M426.663,287.041l1.053-1.053c1.786-1.786,2.968-4.087,3.328-6.479l1.388-9.239
		l0.594-3.954c0.091,0.004,0.183,0.006,0.277,0.006c0.302,0,0.603-0.009,0.903-0.024c0.09-0.004,0.178-0.013,0.267-0.019
		c0.199-0.013,0.398-0.026,0.596-0.045c0.17-0.017,0.337-0.039,0.506-0.06c0.109-0.014,0.218-0.026,0.327-0.042
		c0.239-0.035,0.476-0.076,0.712-0.12c0.029-0.005,0.058-0.01,0.087-0.016c1.121-0.214,2.205-0.532,3.243-0.943v39.732l-6.775,6.645
		l-6.505-6.636v-1.832l4.718-4.718c0.304-0.304,0.304-0.797,0-1.102l-4.718-4.718V287.041z M378.311,283.731l23.461-23.464
		c0.002-0.002,0.003-0.003,0.005-0.004l0.107-0.106c0.733-0.733,1.567-1.344,2.457-1.822c0.996-0.534,2.063-0.902,3.153-1.065
		l18.656-2.805c0.316-0.048,0.633-0.072,0.941-0.072c1.606,0.001,3.037,0.636,4.029,1.788c0.114,0.132,0.218,0.271,0.316,0.413
		c-2.378,6.217-8.403,10.645-15.445,10.645c-0.43,0-0.779,0.349-0.779,0.779s0.349,0.779,0.779,0.779
		c7.15,0,13.343-4.17,16.278-10.205c0.124,0.645,0.143,1.327,0.038,2.03l-0.343,2.285l-0.371,2.467c0,0.002-0.001,0.004-0.002,0.007
		l-0.727,4.838l-1.362,9.058c-0.311,2.065-1.337,4.057-2.889,5.609l-23.572,23.574c-0.706,0.705-1.642,1.11-2.567,1.11
		c-0.757,0-1.448-0.274-1.946-0.771l-20.556-20.559c-0.545-0.545-0.817-1.304-0.767-2.139
		C377.258,285.232,377.651,284.39,378.311,283.731z M420.941,235.042c-0.178,0.167-0.354,0.336-0.525,0.51
		c-0.085,0.086-0.166,0.174-0.249,0.261c-0.115,0.121-0.23,0.243-0.341,0.368c-0.113,0.126-0.223,0.255-0.332,0.384
		c-0.074,0.088-0.149,0.175-0.221,0.264c-0.13,0.159-0.257,0.321-0.381,0.484c-0.046,0.061-0.093,0.122-0.138,0.184
		c-0.139,0.188-0.275,0.378-0.406,0.571c-0.027,0.039-0.053,0.079-0.08,0.118c-0.143,0.212-0.281,0.427-0.414,0.645
		c-0.014,0.022-0.027,0.045-0.04,0.067c-0.141,0.233-0.277,0.469-0.408,0.708c-0.005,0.01-0.01,0.02-0.016,0.029
		c-0.136,0.25-0.266,0.503-0.389,0.759c-0.001,0.002-0.001,0.003-0.002,0.005c-0.382,0.793-0.707,1.613-0.97,2.457
		c-0.002,0.005-0.003,0.011-0.005,0.017c-0.086,0.278-0.166,0.557-0.239,0.839c-0.003,0.013-0.006,0.027-0.009,0.04
		c-0.07,0.276-0.136,0.554-0.193,0.834c-0.005,0.022-0.008,0.045-0.012,0.067c-0.055,0.274-0.105,0.548-0.148,0.825
		c-0.003,0.02-0.005,0.04-0.008,0.059c-0.132,0.885-0.203,1.785-0.203,2.696c0,0.295,0.009,0.589,0.023,0.881
		c0.003,0.054,0.007,0.108,0.01,0.162c0.013,0.233,0.03,0.466,0.052,0.697c0.008,0.08,0.017,0.159,0.026,0.238
		c0.023,0.208,0.048,0.414,0.078,0.621c0.012,0.085,0.025,0.17,0.039,0.255c0.032,0.204,0.069,0.408,0.108,0.611
		c0.015,0.08,0.03,0.16,0.047,0.239c0.046,0.22,0.096,0.438,0.151,0.656c0.015,0.059,0.028,0.118,0.043,0.177
		c0.14,0.541,0.303,1.076,0.494,1.605l-9.02,1.356c-0.01,0.002-0.02,0.004-0.03,0.006c-0.227,0.035-0.453,0.078-0.677,0.127
		c-0.042,0.009-0.084,0.017-0.126,0.027c-0.221,0.051-0.441,0.11-0.659,0.175c-0.049,0.015-0.098,0.029-0.146,0.044
		c-0.217,0.068-0.433,0.142-0.647,0.223c-0.042,0.016-0.084,0.033-0.126,0.05c-0.222,0.087-0.442,0.18-0.659,0.281
		c-0.019,0.009-0.037,0.019-0.056,0.028c-0.217,0.103-0.431,0.213-0.643,0.329c-0.022,0.012-0.043,0.023-0.065,0.035
		c-0.214,0.12-0.424,0.248-0.632,0.381c-0.031,0.02-0.063,0.04-0.094,0.06c-0.204,0.134-0.405,0.275-0.602,0.422
		c-0.028,0.021-0.055,0.042-0.083,0.063c-0.201,0.153-0.398,0.311-0.59,0.477c-0.004,0.004-0.009,0.007-0.013,0.01
		c-1.281-2.396-1.954-5.061-1.954-7.763c0-9.116,7.417-16.533,16.533-16.533c1.715,0,3.403,0.265,5.034,0.788
		C420.996,234.986,420.97,235.015,420.941,235.042z M449.837,248.231c0,6.54-3.818,12.205-9.341,14.885
		c-0.036,0.011-0.073,0.019-0.108,0.035c-1.39,0.662-2.832,1.12-4.309,1.375c-0.025,0.004-0.051,0.009-0.076,0.014
		c-0.24,0.04-0.481,0.072-0.723,0.102c-0.066,0.008-0.132,0.018-0.199,0.025c-0.203,0.022-0.407,0.037-0.611,0.051
		c-0.097,0.007-0.193,0.017-0.291,0.022c-0.188,0.01-0.378,0.012-0.567,0.016c-0.103,0.002-0.205,0.008-0.309,0.008
		c-0.01,0-0.021,0-0.031,0c-0.004,0-0.009,0-0.013,0l0.229-1.526l0.358-2.383c0.24-1.596-0.006-3.127-0.695-4.438
		c0.599-1.796,0.929-3.715,0.929-5.71c0-2.716-0.585-5.325-1.74-7.754c-0.185-0.388-0.649-0.554-1.038-0.369
		c-0.389,0.185-0.554,0.649-0.369,1.038c1.054,2.218,1.589,4.602,1.589,7.085c0,1.427-0.182,2.812-0.523,4.133
		c-1.062-1.073-2.482-1.746-4.025-1.939c-0.669-0.084-1.361-0.081-2.058,0.024l-8.057,1.212c-0.011-0.029-0.024-0.059-0.035-0.088
		c-0.05-0.133-0.097-0.267-0.143-0.401c-0.04-0.114-0.079-0.229-0.116-0.344c-0.044-0.136-0.085-0.272-0.125-0.409
		c-0.034-0.115-0.067-0.231-0.098-0.346c-0.037-0.138-0.073-0.276-0.106-0.415c-0.028-0.117-0.055-0.233-0.08-0.351
		c-0.03-0.139-0.06-0.278-0.087-0.418c-0.023-0.118-0.043-0.237-0.063-0.356c-0.024-0.14-0.047-0.28-0.068-0.421
		c-0.017-0.12-0.031-0.24-0.045-0.361c-0.017-0.141-0.035-0.282-0.048-0.424c-0.011-0.121-0.018-0.243-0.027-0.364
		c-0.01-0.143-0.022-0.285-0.029-0.428c-0.006-0.12-0.006-0.24-0.009-0.361c-0.003-0.139-0.009-0.278-0.009-0.418
		c0-0.108,0.006-0.214,0.008-0.321c0.004-0.187,0.006-0.373,0.016-0.559c0.008-0.142,0.021-0.283,0.032-0.424
		c0.012-0.154,0.023-0.307,0.039-0.46c0.016-0.151,0.037-0.3,0.057-0.449c0.019-0.14,0.037-0.279,0.059-0.418
		c0.025-0.157,0.054-0.314,0.084-0.47c0.024-0.126,0.049-0.252,0.075-0.377c0.035-0.165,0.073-0.329,0.114-0.492
		c0.027-0.11,0.056-0.219,0.085-0.329c0.047-0.175,0.096-0.349,0.148-0.522c0.027-0.088,0.056-0.175,0.084-0.262
		c0.062-0.19,0.124-0.38,0.192-0.567c0.017-0.047,0.036-0.094,0.054-0.141c0.351-0.934,0.783-1.828,1.289-2.674
		c0.027-0.045,0.053-0.091,0.081-0.136c0.104-0.171,0.214-0.338,0.324-0.505c0.05-0.075,0.1-0.151,0.151-0.225
		c0.1-0.146,0.203-0.29,0.308-0.433c0.073-0.099,0.147-0.196,0.222-0.294c0.092-0.12,0.185-0.239,0.28-0.356
		c0.112-0.137,0.228-0.272,0.344-0.406c0.065-0.075,0.129-0.152,0.196-0.226c0.608-0.673,1.274-1.302,1.998-1.88
		c2.826-2.255,6.403-3.608,10.292-3.608C442.421,231.698,449.837,239.115,449.837,248.231z"/>
</g>
</svg>
