<?xml version="1.0" encoding="utf-8"?>
<!-- Generator: Adobe Illustrator 17.0.0, SVG Export Plug-In . SVG Version: 6.00 Build 0)  -->
<!DOCTYPE svg PUBLIC "-//W3C//DTD SVG 1.1//EN" "http://www.w3.org/Graphics/SVG/1.1/DTD/svg11.dtd">
<svg version="1.1" id="Capa_1" xmlns="http://www.w3.org/2000/svg" xmlns:xlink="http://www.w3.org/1999/xlink" x="0px" y="0px"
	 width="20px" height="19.111px" viewBox="205.059 205.503 20 19.111" enable-background="new 205.059 205.503 20 19.111"
	 xml:space="preserve">
<g>
	<path id="LinkedIn" fill="#cbced3" d="M225.059,217.22v7.394h-4.287v-6.899c0-1.733-0.62-2.916-2.172-2.916
		c-1.184,0-1.889,0.797-2.199,1.568c-0.113,0.276-0.142,0.659-0.142,1.045v7.201h-4.288c0,0,0.058-11.684,0-12.895h4.288v1.828
		c-0.009,0.014-0.02,0.028-0.028,0.042h0.028v-0.042c0.57-0.877,1.587-2.131,3.864-2.131
		C222.944,211.417,225.059,213.26,225.059,217.22z M207.485,205.503c-1.467,0-2.426,0.962-2.426,2.228
		c0,1.238,0.932,2.229,2.37,2.229h0.029c1.495,0,2.425-0.991,2.425-2.229C209.854,206.466,208.952,205.503,207.485,205.503z
		 M205.313,224.615h4.286v-12.895h-4.286V224.615z"/>
</g>
</svg>
