<?xml version="1.0" encoding="utf-8"?>
<!-- Generator: Adobe Illustrator 17.0.0, SVG Export Plug-In . SVG Version: 6.00 Build 0)  -->
<!DOCTYPE svg PUBLIC "-//W3C//DTD SVG 1.1//EN" "http://www.w3.org/Graphics/SVG/1.1/DTD/svg11.dtd">
<svg version="1.1" id="Layer_1" xmlns="http://www.w3.org/2000/svg" xmlns:xlink="http://www.w3.org/1999/xlink" x="0px" y="0px"
	 width="34px" height="34px" viewBox="0 0 34 34" enable-background="new 0 0 34 34" xml:space="preserve">
<path fill="#B8A42D" d="M33.928,29.124c0.189-0.982-0.038-1.813-0.189-2.341c-2.001-1.737-4.04-3.474-6.042-5.211
	c-0.566-0.302-1.359-0.604-2.039-0.302c-0.642,0.264-0.868,0.906-1.133,1.322c-1.095,1.699-3.965,1.586-6.419,0.793
	c-1.51-0.491-6.986-5.966-7.477-7.477c-0.793-2.454-0.906-5.324,0.793-6.419c0.415-0.264,1.057-0.491,1.322-1.133
	c0.302-0.68,0-1.473-0.302-2.039c-1.737-2.001-3.474-4.04-5.211-6.042C6.702,0.086,5.834-0.103,4.89,0.086
	C1.68,0.652,0.434,4.655,0.321,4.919C-0.17,6.58,0.019,7.978,0.132,8.506c0.34,2.228,3.927,10.649,9.818,16.502
	c5.551,5.551,13.443,8.534,15.558,8.874c0.529,0.076,1.926,0.302,3.587-0.189C29.359,33.58,33.362,32.334,33.928,29.124z"/>
</svg>
