<?xml version="1.0" encoding="utf-8"?>
<!-- Generator: Adobe Illustrator 17.0.0, SVG Export Plug-In . SVG Version: 6.00 Build 0)  -->
<!DOCTYPE svg PUBLIC "-//W3C//DTD SVG 1.1//EN" "http://www.w3.org/Graphics/SVG/1.1/DTD/svg11.dtd">
<svg version="1.1" id="Layer_1" xmlns="http://www.w3.org/2000/svg" xmlns:xlink="http://www.w3.org/1999/xlink" x="0px" y="0px"
	 width="152px" height="155px" viewBox="0 0 152 155" enable-background="new 0 0 152 155" xml:space="preserve">
<g>
	<path fill="#BBA72C" d="M81.5,93.439h10.852V82.587H81.5V93.439z M83.323,84.41h7.206v7.206h-7.206V84.41z"/>
	<path fill="#BBA72C" d="M65.222,68.904h10.852V58.051H65.222V68.904z M67.045,59.875h7.206v7.206h-7.206V59.875z"/>
	<path fill="#BBA72C" d="M92.352,9.217H81.5v10.852h10.852V9.217z M90.529,18.246h-7.206V11.04h7.206V18.246z"/>
	<path fill="#BBA72C" d="M65.222,93.439h10.852V82.587H65.222V93.439z M67.045,84.41h7.206v7.206h-7.206V84.41z"/>
	<path fill="#BBA72C" d="M81.5,44.004h10.852V33.152H81.5V44.004z M83.323,34.975h7.206v7.206h-7.206V34.975z"/>
	<path fill="#BBA72C" d="M78.787,115.479c-6.575,0-11.924,5.349-11.924,11.924c0,5.593,4.013,10.48,9.542,11.619l1.31,0.27V155
		h2.145v-15.708l1.31-0.27c5.529-1.139,9.543-6.026,9.543-11.619C90.712,120.828,85.362,115.479,78.787,115.479z M79.436,126.587
		c-0.263-0.222-0.591-0.333-0.85-0.285c-0.456,0.088-0.88,0.609-0.871,1.066v9.966l-2.176-0.75
		c-3.968-1.367-6.532-4.971-6.532-9.181c0-5.393,4.387-9.78,9.78-9.78s9.78,4.387,9.78,9.78c0,4.211-2.564,7.814-6.533,9.181
		l-2.175,0.75v-9.925C79.864,127.117,79.71,126.817,79.436,126.587z M78.716,126.66L78.716,126.66v-0.005V126.66z"/>
	<path fill="#BBA72C" d="M81.5,68.904h10.852V58.051H81.5V68.904z M83.323,59.875h7.206v7.206h-7.206V59.875z"/>
	<path fill="#BBA72C" d="M76.074,9.217H65.222v10.852h10.852V9.217z M74.251,18.246h-7.206V11.04h7.206V18.246z"/>
	<path fill="#BBA72C" d="M124.942,151.935h-23.379l0.172-106.377h35.667v45.049c-0.004,0.265,0.12,0.539,0.339,0.761
		c0.216,0.219,0.49,0.35,0.733,0.35s0.517-0.131,0.733-0.349c0.216-0.219,0.343-0.495,0.339-0.738V44.486
		c0-0.511-0.561-1.072-1.072-1.072h-36.741V1.078c0-0.511-0.561-1.072-1.072-1.072L57.152,0.003C57.106,0,57.06,0,57.013,0.003
		l-0.1,0.006l-0.071-0.004c-0.38,0.173-0.676,0.618-0.663,1.022l-0.172,85.966L1.21,86.973c-0.065-0.011-0.131-0.015-0.197-0.013
		c-0.368,0.184-0.64,0.624-0.62,1.024l0.002,0.065v65.13c0,0.511,0.56,1.071,1.071,1.072l25.048-0.17l0.131,0.02
		c0.119,0.019,0.226,0.019,0.337,0.001l0.258-0.02h39.966v-2.145h-9.051V87.212l0.173-85.06h41.261v41.827
		c-0.001,0.063-0.002,0.088-0.001,0.113l0.001,0.395l-0.172,107.45h-8.041c0.004,0.558,0.016,1.275,0.036,2.145h33.497
		c0.266-0.005,0.547-0.128,0.761-0.339c0.219-0.216,0.35-0.49,0.35-0.733c0-0.244-0.131-0.518-0.349-0.733
		C125.455,152.062,125.182,151.935,124.942,151.935z M56.01,151.935l-29.385-0.004c-0.043-0.002-0.086-0.002-0.128,0l-0.073,0.003
		l-23.885,0.183V89.136H56.01V151.935z"/>
	<rect x="109.542" y="53.537" fill="#BBA72C" width="19.881" height="3.603"/>
	<path fill="#BBA72C" d="M138.732,101.558l-0.596-0.417l-0.656,0.459c-9.692,7.271-14.126,15.454-12.484,23.044
		c1.445,6.681,7.13,11.051,11.646,13.541l0.954,0.527l-0.171,16.005h1.78l0.171-16.163l0.901-0.52
		c4.223-2.434,9.56-6.733,10.998-13.389C152.916,117.054,148.463,108.857,138.732,101.558z M139.005,126.726
		c-0.229-0.192-0.496-0.283-0.697-0.245c-0.372,0.071-0.731,0.512-0.724,0.887v9.554l-2.897-2.11
		c-4.303-3.135-7.011-6.794-7.83-10.584c-0.896-4.142,0.13-10.843,10.103-19.244l1.175-0.99l1.174,0.99
		c9.973,8.401,10.999,15.102,10.104,19.244c-1.011,4.674-4.424,8.133-7.109,10.213l-2.939,2.276v-9.31
		C139.368,127.17,139.237,126.922,139.005,126.726z"/>
	<path fill="#BBA72C" d="M65.222,44.004h10.852V33.152H65.222V44.004z M67.045,34.975h7.206v7.206h-7.206V34.975z"/>
	<rect x="109.542" y="64.389" fill="#BBA72C" width="19.881" height="3.603"/>
</g>
</svg>
