<?xml version="1.0" encoding="utf-8"?>
<!-- Generator: Adobe Illustrator 17.0.0, SVG Export Plug-In . SVG Version: 6.00 Build 0)  -->
<!DOCTYPE svg PUBLIC "-//W3C//DTD SVG 1.1//EN" "http://www.w3.org/Graphics/SVG/1.1/DTD/svg11.dtd">
<svg version="1.1" id="Capa_1" xmlns="http://www.w3.org/2000/svg" xmlns:xlink="http://www.w3.org/1999/xlink" x="0px" y="0px"
	 width="20px" height="24px" viewBox="35 34.875 20 24" enable-background="new 35 34.875 20 24" xml:space="preserve">
<g>
	<path id="YouTube" fill="#cbced3" d="M51.917,52.43H50.6l0.006-0.765c0-0.34,0.279-0.618,0.62-0.618h0.084
		c0.342,0,0.622,0.278,0.622,0.618L51.917,52.43z M46.977,50.791c-0.334,0-0.607,0.225-0.607,0.499v3.721
		c0,0.274,0.273,0.498,0.607,0.498c0.335,0,0.609-0.224,0.609-0.498V51.29C47.586,51.015,47.312,50.791,46.977,50.791z M55,48.709
		v7.078c0,1.698-1.472,3.087-3.272,3.087H38.272c-1.8,0-3.272-1.389-3.272-3.087v-7.078c0-1.698,1.472-3.087,3.272-3.087h13.456
		C53.528,45.622,55,47.012,55,48.709z M39.17,56.556L39.169,49.1l1.668,0.001v-1.105l-4.446-0.007v1.086l1.388,0.004v7.477H39.17z
		 M44.17,50.211h-1.391v3.982c0,0.576,0.035,0.864-0.002,0.966c-0.113,0.309-0.621,0.637-0.819,0.033
		c-0.034-0.106-0.004-0.424-0.005-0.971l-0.006-4.009h-1.383l0.004,3.946c0.001,0.605-0.014,1.056,0.005,1.261
		c0.034,0.362,0.022,0.784,0.358,1.025c0.626,0.451,1.825-0.067,2.125-0.711l-0.003,0.822l1.117,0.001L44.17,50.211L44.17,50.211z
		 M48.619,54.77l-0.003-3.314c-0.001-1.263-0.946-2.019-2.228-0.997l0.006-2.464l-1.389,0.002l-0.007,8.504l1.142-0.017l0.104-0.53
		C47.703,57.294,48.621,56.377,48.619,54.77z M52.971,54.331l-1.043,0.006c-0.001,0.041-0.002,0.089-0.003,0.141v0.582
		c0,0.311-0.257,0.565-0.57,0.565h-0.204c-0.313,0-0.57-0.254-0.57-0.565v-0.065v-0.64v-0.826h2.388V52.63
		c0-0.657-0.017-1.313-0.071-1.689c-0.171-1.188-1.838-1.376-2.68-0.768c-0.264,0.19-0.466,0.444-0.583,0.785
		c-0.118,0.342-0.177,0.808-0.177,1.401v1.976C49.457,57.621,53.447,57.156,52.971,54.331z M47.622,43.604
		c0.072,0.174,0.183,0.316,0.334,0.422c0.149,0.105,0.34,0.158,0.569,0.158c0.201,0,0.378-0.054,0.533-0.166
		c0.154-0.111,0.284-0.277,0.39-0.499l-0.026,0.546h1.55v-6.592h-1.22v5.131c0,0.278-0.229,0.505-0.509,0.505
		c-0.278,0-0.508-0.227-0.508-0.505v-5.131h-1.274v4.446c0,0.566,0.01,0.944,0.027,1.135C47.507,43.244,47.55,43.427,47.622,43.604z
		 M42.925,39.88c0-0.633,0.053-1.127,0.158-1.483c0.106-0.355,0.295-0.64,0.57-0.855c0.274-0.216,0.625-0.325,1.051-0.325
		c0.359,0,0.666,0.07,0.922,0.208c0.258,0.139,0.457,0.319,0.595,0.541c0.141,0.223,0.236,0.452,0.287,0.686
		c0.052,0.238,0.078,0.596,0.078,1.079v1.667c0,0.611-0.025,1.061-0.072,1.347c-0.047,0.286-0.149,0.552-0.306,0.801
		c-0.155,0.246-0.354,0.431-0.597,0.548c-0.245,0.119-0.525,0.177-0.841,0.177c-0.353,0-0.651-0.049-0.896-0.151
		c-0.246-0.101-0.436-0.254-0.572-0.457c-0.137-0.203-0.233-0.451-0.291-0.739c-0.058-0.288-0.086-0.722-0.086-1.3L42.925,39.88
		L42.925,39.88z M44.139,42.499c0,0.373,0.278,0.678,0.616,0.678c0.339,0,0.615-0.305,0.615-0.678V38.99
		c0-0.373-0.277-0.678-0.615-0.678c-0.338,0-0.616,0.305-0.616,0.678V42.499z M39.849,44.271h1.462l0.002-5.056l1.728-4.331h-1.599
		l-0.919,3.217l-0.932-3.226h-1.583l1.838,4.342L39.849,44.271z"/>
</g>
</svg>
