<?xml version="1.0" encoding="utf-8"?>
<!-- Generator: Adobe Illustrator 17.0.0, SVG Export Plug-In . SVG Version: 6.00 Build 0)  -->
<!DOCTYPE svg PUBLIC "-//W3C//DTD SVG 1.1//EN" "http://www.w3.org/Graphics/SVG/1.1/DTD/svg11.dtd">
<svg version="1.1" id="Layer_1" xmlns="http://www.w3.org/2000/svg" xmlns:xlink="http://www.w3.org/1999/xlink" x="0px" y="0px"
	 width="180px" height="155px" viewBox="0 -0.986 180 155" enable-background="new 0 -0.986 180 155" xml:space="preserve">
<g>
	<path fill="#BBA72C" d="M50.113,11.383C49.018,5.358,43.817,0.985,37.746,0.985H16.774c-6.103,0-11.303,4.372-12.366,10.396
		L0,35.989h26.535v101.245l-0.73,0.065c-8.17,0.726-14.332,7.596-14.332,15.98v0.343h2.212v-0.343
		c0-6.924,5.017-12.709,11.929-13.756l0.921-0.14v14.239h2.212v-14.053l0.924,0.145c6.581,1.028,11.544,6.86,11.544,13.565v0.343
		h2.212v-0.343c0-8.076-6.007-14.865-13.972-15.792l-0.708-0.082V35.989h12.469V54.33c0,0.703,0.403,1.106,1.106,1.106
		c0.703,0,1.106-0.403,1.106-1.106V35.989H54.52L50.113,11.383z M16.775,3.387h21.162c5.051,0,9.312,3.569,10.132,8.489
		l3.982,21.901H2.66l3.985-21.919C7.464,6.95,11.723,3.387,16.775,3.387z"/>
	<path fill="#BBA72C" d="M167.169,86.892l-0.018-0.594c-0.402-13.403-3.46-19.641-11.283-23.015
		c-8.175-3.526-21.659-3.78-42.895-3.78c-22.408,0-35.791,1.855-43.392,6.015c-6.778,3.71-9.586,9.584-9.689,20.277l-0.019,1.903
		l-1.896,0.163c-2.47,0.212-4.801,0.953-6.932,2.207c-4.684,2.919-7.371,7.914-7.371,13.704c0,11.007,5.244,18.55,13.687,19.684
		l1.354,0.182l8.718,30.231l0.042,0.145h88.281l8.331-29.794l1.352-0.193c10.161-1.452,14.557-11.762,14.557-16.699l0.002-0.567
		c0.022-4.446,0.062-12.721-11.707-18.731l-0.535-0.273l-0.549-0.267 M69.011,151.942l-8.675-30.576h-0.835
		c-5.437,0-9.513-2.623-11.787-7.585c-1.712-3.736-1.968-7.875-1.968-10.01c0-4.93,2.31-9.297,6.334-11.979l0.07-0.045
		c2.161-1.296,4.653-1.982,7.206-1.982c2.4,0,4.849,0.61,7.081,1.765c9.512,4.892,12.112,18.68,12.682,22.789l0.244,2.188
		l1.752-0.751l0.106-0.012c4.033-1.45,15.16-4.824,31.327-4.824c15.908,0,26.517,3.273,30.34,4.681l0.125,0.013l1.515,0.694
		l1.105-4.887c1.628-7.402,3.312-15.055,9.294-18.935l0.049-0.031c3.178-1.907,8.277-2.055,9.765-2.055
		c0.535,0,1.034,0.017,1.441,0.048l3.606,0.314l0.291,0.118c4.584,1.853,8.945,7.883,7.687,16.741
		c-0.566,3.982-4.263,14.314-14.446,14.314h-0.828l-8.391,30.007H69.011z M162.996,88.227c-2.715,0.136-6.519,0.658-9.222,2.379
		c-6.697,4.379-8.514,12.706-10.117,20.054l-0.005,2.932l-2.721-0.855c-4.618-1.452-14.448-3.886-28.385-3.886
		c-10.317,0-20.116,1.359-29.127,4.037l-2.19,0.651l-0.458-2.239c-1.005-4.912-4.324-16.849-13.427-21.604
		c-1.202-0.6-2.478-1.068-3.793-1.391l-1.594-0.391v-1.642c0-6.763,0.001-13.757,7.163-18.31c6.949-4.419,20.474-6.389,43.853-6.389
		c22.977,0,35.164,0.55,42.281,3.679c7.986,3.511,9.581,10.038,9.731,20.856l0.029,2.019L162.996,88.227z"/>
	<path fill="#BBA72C" d="M114.064,122.145c-17.564,0-31.904,4.182-32.046,4.224l-1.226,0.363l0.647,1.103
		c2.976,5.076,1.956,11.97,1.945,12.038l-0.18,1.155h57.033l-0.09-1.084c-0.353-4.243,2.548-12.19,2.577-12.27l0.354-0.963
		l-0.971-0.33C133.841,123.57,124.406,122.145,114.064,122.145z M138.116,139.027H85.488c0.173-2.143,0.26-6.874-1.72-11.06
		c3.741-0.974,15.914-3.82,30.296-3.82c9.724,0,18.612,1.282,26.438,3.811C139.778,130.095,138.166,135.261,138.116,139.027z"/>
</g>
</svg>
