<?xml version="1.0" encoding="utf-8"?>
<!-- Generator: Adobe Illustrator 17.0.0, SVG Export Plug-In . SVG Version: 6.00 Build 0)  -->
<!DOCTYPE svg PUBLIC "-//W3C//DTD SVG 1.1//EN" "http://www.w3.org/Graphics/SVG/1.1/DTD/svg11.dtd">
<svg version="1.1" id="Layer_1" xmlns="http://www.w3.org/2000/svg" xmlns:xlink="http://www.w3.org/1999/xlink" x="0px" y="0px"
	 width="20px" height="16.636px" viewBox="40.001 33.272 20 16.636" enable-background="new 40.001 33.272 20 16.636"
	 xml:space="preserve">
<path fill="#cbced3" d="M59.682,35.208c-0.444,0.197-0.906,0.353-1.379,0.465c0.522-0.496,0.914-1.116,1.135-1.807l0,0
	c0.063-0.198-0.151-0.368-0.33-0.263l0,0c-0.658,0.391-1.368,0.684-2.108,0.871c-0.043,0.011-0.087,0.016-0.132,0.016
	c-0.135,0-0.266-0.05-0.369-0.141c-0.788-0.694-1.801-1.077-2.853-1.077c-0.455,0-0.915,0.071-1.366,0.211
	c-1.398,0.434-2.477,1.587-2.815,3.01c-0.127,0.534-0.161,1.068-0.102,1.588c0.007,0.06-0.021,0.101-0.039,0.121
	c-0.031,0.034-0.074,0.054-0.119,0.054c-0.005,0-0.01,0-0.015-0.001c-3.06-0.284-5.82-1.759-7.771-4.151l0,0
	c-0.099-0.122-0.29-0.107-0.37,0.029l0,0c-0.382,0.655-0.584,1.405-0.584,2.168c0,1.169,0.47,2.271,1.285,3.074
	c-0.343-0.081-0.675-0.209-0.983-0.381l0,0c-0.149-0.083-0.333,0.024-0.335,0.194l0,0c-0.022,1.736,0.995,3.282,2.518,3.977
	c-0.031,0.001-0.061,0.001-0.092,0.001c-0.241,0-0.486-0.023-0.726-0.069l0,0c-0.168-0.032-0.309,0.127-0.257,0.29l0,0
	c0.494,1.543,1.823,2.681,3.413,2.939c-1.32,0.886-2.857,1.353-4.456,1.353l-0.499,0c-0.154,0-0.284,0.1-0.323,0.249
	c-0.039,0.147,0.032,0.301,0.163,0.377c1.803,1.049,3.859,1.603,5.947,1.603c1.828,0,3.538-0.363,5.082-1.078
	c1.416-0.656,2.667-1.593,3.718-2.786c0.98-1.111,1.746-2.394,2.277-3.813c0.506-1.353,0.774-2.796,0.774-4.173v-0.066
	c0-0.221,0.1-0.429,0.275-0.571c0.662-0.538,1.239-1.171,1.714-1.882l0,0C60.087,35.351,59.889,35.116,59.682,35.208L59.682,35.208z
	"/>
</svg>
