<?xml version="1.0" encoding="utf-8"?>
<!-- Generator: Adobe Illustrator 17.0.0, SVG Export Plug-In . SVG Version: 6.00 Build 0)  -->
<!DOCTYPE svg PUBLIC "-//W3C//DTD SVG 1.1//EN" "http://www.w3.org/Graphics/SVG/1.1/DTD/svg11.dtd">
<svg version="1.1" id="Layer_1" xmlns="http://www.w3.org/2000/svg" xmlns:xlink="http://www.w3.org/1999/xlink" x="0px" y="0px"
	 width="48px" height="33.951px" viewBox="0 0 48 33.951" enable-background="new 0 0 48 33.951" xml:space="preserve">
<g opacity="0.3">
	<path d="M44.7,7.875h3.301l-1.95-7.799l-0.019-0.077h-25.82l-2.953,7.875h2.687v1.331h-8.233V6.342h0.771V4.607H6.141v1.735h0.771
		v2.863H3.396L0.23,15.548h2.836v16.668H0v1.735h29.353v-9.968h5.938v9.968h12.474v-1.735h-3.065L44.7,7.875L44.7,7.875z
		 M27.61,22.249v9.968h-5.938V7.876h21.275v24.341h-5.929v-9.968H27.61z M44.68,1.744l1.097,4.396H19.76l1.654-4.396H44.68z
		 M19.936,15.549v16.668H4.801V15.549H19.936z M8.638,9.206V6.343h1.331v2.863H8.638z M19.936,10.951v2.863H3.039l1.432-2.863
		H19.936z"/>
	<path d="M16.311,19.945H8.436v7.875h7.875V19.945z M10.171,26.085v-4.396h4.405v4.396H10.171z"/>
	<path d="M23.773,17.852h7.875V9.977h-7.875V17.852z M29.913,11.712v4.396h-4.396v-4.396H29.913z"/>
	<path d="M40.854,9.977h-7.875v7.875h7.875V9.977z M34.714,16.108v-4.396h4.406v4.396H34.714z"/>
</g>
</svg>
