<?xml version="1.0" encoding="utf-8"?>
<!-- Generator: Adobe Illustrator 17.0.0, SVG Export Plug-In . SVG Version: 6.00 Build 0)  -->
<!DOCTYPE svg PUBLIC "-//W3C//DTD SVG 1.1//EN" "http://www.w3.org/Graphics/SVG/1.1/DTD/svg11.dtd">
<svg version="1.1" id="Layer_1" xmlns="http://www.w3.org/2000/svg" xmlns:xlink="http://www.w3.org/1999/xlink" x="0px" y="0px"
	 width="41px" height="37.017px" viewBox="400.445 239.605 41 37.017" enable-background="new 400.445 239.605 41 37.017"
	 xml:space="preserve">
<g opacity="0.3">
	<path d="M412.977,253.659h-3.945c-0.261,0-0.473,0.212-0.473,0.473v3.943c0,0.261,0.212,0.473,0.473,0.473h3.945
		c0.261,0,0.473-0.212,0.473-0.473v-3.943C413.45,253.871,413.238,253.659,412.977,253.659z M412.504,257.602h-2.998v-2.997h2.998
		V257.602z"/>
	<path d="M441.423,258.608c-0.045-0.16-0.154-0.298-0.297-0.376l-2.127-1.227v-8.184c0-0.164-0.066-0.324-0.182-0.44
		c-0.116-0.116-0.276-0.182-0.44-0.182h-6.476c-0.164,0-0.324,0.066-0.44,0.182c-0.116,0.116-0.182,0.276-0.182,0.44v3.727
		l-22.271-12.858c-0.084-0.049-0.18-0.077-0.278-0.083c-0.229-0.011-0.458,0.112-0.572,0.31l-7.63,13.205
		c-0.082,0.142-0.105,0.314-0.062,0.472c0.042,0.158,0.148,0.296,0.29,0.378c0.14,0.081,0.316,0.104,0.472,0.062
		c0.158-0.042,0.296-0.148,0.378-0.29l1.351-2.339v24.593c-0.002,0.179,0.058,0.34,0.171,0.454c0.11,0.111,0.263,0.17,0.451,0.17
		c0,0,0,0,0,0h34.794l0.016,0c0.17,0,0.326-0.062,0.438-0.174c0.113-0.113,0.172-0.268,0.171-0.448V258.44l1.502,0.867
		c0.141,0.086,0.318,0.112,0.477,0.071c0.161-0.041,0.301-0.148,0.384-0.292C441.446,258.942,441.468,258.768,441.423,258.608z
		 M434.219,273.069v2.308h-10.143v-2.308H434.219z M434.219,269.516v2.308h-10.143v-2.308H434.219z M434.219,265.964v2.308h-10.143
		v-2.308H434.219z M413.434,265.238v10.138h-4.617v-10.138H413.434z M432.523,253.265v-3.823h5.231v6.844L432.523,253.265z
		 M435.281,264.902c-0.116-0.116-0.276-0.182-0.44-0.182h-11.388c-0.164,0-0.324,0.066-0.44,0.182
		c-0.116,0.116-0.182,0.276-0.182,0.44v10.035h-8.153v-10.76c0-0.164-0.066-0.324-0.182-0.44c-0.116-0.116-0.276-0.182-0.44-0.182
		h-5.861c-0.164,0-0.324,0.066-0.44,0.182c-0.116,0.116-0.182,0.277-0.182,0.44v10.76h-3.371v-26.126l4.723-8.174l12.452,7.19
		l16.378,9.456v17.655h-2.291v-10.035C435.463,265.178,435.397,265.018,435.281,264.902z M438.389,276.47L438.389,276.47l0,0.002
		L438.389,276.47z"/>
</g>
</svg>
