<?xml version="1.0" encoding="utf-8"?>
<!-- Generator: Adobe Illustrator 17.0.0, SVG Export Plug-In . SVG Version: 6.00 Build 0)  -->
<!DOCTYPE svg PUBLIC "-//W3C//DTD SVG 1.1//EN" "http://www.w3.org/Graphics/SVG/1.1/DTD/svg11.dtd">
<svg version="1.1" id="Layer_1" xmlns="http://www.w3.org/2000/svg" xmlns:xlink="http://www.w3.org/1999/xlink" x="0px" y="0px"
	 width="31.001px" height="26.951px" viewBox="405.445 282.14 31.001 26.951" enable-background="new 405.445 282.14 31.001 26.951"
	 xml:space="preserve">
<path fill="#BBA72C" d="M407.2,296.156c0.39,0,0.744-0.106,1.063-0.354l0.532-0.425v11.943c0,0.992,0.78,1.772,1.772,1.772h20.731
	c0.992,0,1.772-0.78,1.772-1.772v-11.943l0.532,0.425c0.78,0.602,1.878,0.425,2.481-0.319c0.602-0.78,0.425-1.878-0.319-2.481
	l-13.75-10.49c-0.638-0.496-1.524-0.496-2.162,0l-13.715,10.454c-0.78,0.602-0.921,1.701-0.319,2.481
	C406.137,295.908,406.669,296.156,407.2,296.156z"/>
</svg>
