<?xml version="1.0" encoding="utf-8"?>
<!-- Generator: Adobe Illustrator 17.0.0, SVG Export Plug-In . SVG Version: 6.00 Build 0)  -->
<!DOCTYPE svg PUBLIC "-//W3C//DTD SVG 1.1//EN" "http://www.w3.org/Graphics/SVG/1.1/DTD/svg11.dtd">
<svg version="1.1" id="Layer_1" xmlns="http://www.w3.org/2000/svg" xmlns:xlink="http://www.w3.org/1999/xlink" x="0px" y="0px"
	 width="31px" height="19.018px" viewBox="404.98 229.066 31 19.018" enable-background="new 404.98 229.066 31 19.018"
	 xml:space="preserve">
<path fill="#BBA72C" d="M430.368,246.326c0,0.586,0,1.172,0,1.758c-6.592,0-13.184,0-19.777,0c0-0.586,0-1.172,0-1.758
	C417.184,246.326,423.776,246.326,430.368,246.326L430.368,246.326z M417.413,242.741l2.533-9.743
	c-2.103-0.503-1.686-3.619,0.436-3.619c2.122,0,2.54,3.063,0.475,3.608l2.759,9.745c5.232-5.464,8.074-9.037,9.346-10.318
	c-1.31-1.146-0.464-3.227,1.194-3.227c2.701,0,2.28,4.197-0.453,3.614l-3.28,12.372h-19.84l-3.386-12.478
	c-2.771,0.389-2.994-3.63-0.384-3.63c1.751,0,2.536,2.263,1.066,3.328L417.413,242.741z"/>
</svg>
