<?xml version="1.0" encoding="utf-8"?>
<!-- Generator: Adobe Illustrator 17.0.0, SVG Export Plug-In . SVG Version: 6.00 Build 0)  -->
<!DOCTYPE svg PUBLIC "-//W3C//DTD SVG 1.1//EN" "http://www.w3.org/Graphics/SVG/1.1/DTD/svg11.dtd">
<svg version="1.1" id="Capa_1" xmlns="http://www.w3.org/2000/svg" xmlns:xlink="http://www.w3.org/1999/xlink" x="0px" y="0px"
	 width="20px" height="42.856px" viewBox="205.057 193.629 20 42.856" enable-background="new 205.057 193.629 20 42.856"
	 xml:space="preserve">
<g>
	<path id="Facebook" fill="#cbced3" d="M209.38,201.929c0,1.08,0,5.9,0,5.9h-4.323v7.215h4.323v21.441h8.88v-21.44h5.959
		c0,0,0.558-3.46,0.829-7.242c-0.776,0-6.754,0-6.754,0s0-4.198,0-4.933c0-0.737,0.968-1.729,1.925-1.729c0.955,0,2.971,0,4.838,0
		c0-0.982,0-4.377,0-7.511c-2.493,0-5.328,0-6.578,0C209.16,193.628,209.38,200.851,209.38,201.929z"/>
</g>
</svg>
