<?xml version="1.0" encoding="utf-8"?>
<!-- Generator: Adobe Illustrator 17.0.0, SVG Export Plug-In . SVG Version: 6.00 Build 0)  -->
<!DOCTYPE svg PUBLIC "-//W3C//DTD SVG 1.1//EN" "http://www.w3.org/Graphics/SVG/1.1/DTD/svg11.dtd">
<svg version="1.1" id="Layer_1" xmlns="http://www.w3.org/2000/svg" xmlns:xlink="http://www.w3.org/1999/xlink" x="0px" y="0px"
	 width="98.806px" height="98.552px" viewBox="0 0 98.806 98.552" enable-background="new 0 0 98.806 98.552" xml:space="preserve">
<path fill="#BBA72C" d="M98.806,49.221l-3.404-5.883l1.363-6.774l-5.241-4.795v-7.022l-11.202-6.754L74.12,6.454h-6.923
	l-4.895-4.847l-6.81,1.858L49.536,0L38.262,6.454h-13.51l-3.554,6.221l-6.672,1.821l-1.881,6.752l-6.121,3.498v13.237L0,49.43
	l3.48,5.988l-1.901,6.878l4.945,4.994v6.823l11.482,6.164l6.746,11.176h6.922l4.895,5.323l6.88-1.631l5.711,3.405l0.535-0.233
	l11.232-6.865H74.12l3.533-5.693l6.345-1.487l0.496-0.188l1.291-6.45l5.739-3.521V60.608l6.694-10.827L98.806,49.221z
	 M95.405,37.129l-1.492,4.789l-2.388-3.743v-4.481L95.405,37.129z M88.056,65.537l-8.288,14.495L65.66,88.019l-10.055,2.435H37.963
	l-13.661-7.689l-8.834-8.464L7.524,61.175V42.884l2.78-9.56l8.442-14.321l14.704-8.735l9.814-2.814h17.843l13.185,7.888l8.599,8.978
	l7.633,13.709v17.194L88.056,65.537z M90.524,59.622v1.209l-0.597,1.028L90.524,59.622z M87.258,69.545l-1.947,7.344l-3.447,2.003
	L87.258,69.545z M78.75,82.011l-1.925,3.313l-7.036,1.865L78.75,82.011z M62.143,89.853l-1.035,0.601h-1.207L62.143,89.853z
	 M50.47,91.454l-6.979,1.85l-3.184-1.85H50.47z M35.809,90.454h-3.571l-4.88-4.88L35.809,90.454z M19.708,80.344l-0.838-0.487
	l-0.487-0.838L19.708,80.344z M12.255,71.458l-4.731-4.731v-3.486L12.255,71.458z M6.524,58.831l-1.968-3.388l1.968-7.424V58.831z
	 M8.017,38.693v-1.007l0.505-0.87L8.017,38.693z M11.586,29.42l1.938-7.311l3.412-1.982L11.586,29.42z M19.995,17.067l2.051-3.53
	l7.564-2.005L19.995,17.067z M37.007,8.009l0.956-0.555h1.106L37.007,8.009z M48.401,6.454l7.117-1.887l3.247,1.887H48.401z
	 M63.174,7.454h3.46l4.695,4.695L63.174,7.454z M78.887,18.24l1.013,0.588l0.588,1.013L78.887,18.24z M85.735,27.543l4.79,4.79
	v3.489L85.735,27.543z M91.524,40.373l1.768,3.044l-1.768,6.671V40.373z M90.524,25.308v5.099l-7.167-7.432l-1.862-2.989
	L90.524,25.308z M73.558,7.454l5.218,9.211l-2.91-1.79l-7.307-7.421H73.558z M61.737,2.967l3.535,3.487h-4.463l-3.912-2.228
	L61.737,2.967z M49.536,1.141l4.593,2.644l-10.004,2.67h-3.818L49.536,1.141z M25.314,7.454h10.584l-2.787,1.833l-10.348,2.672
	L25.314,7.454z M15.324,15.318l5.169-1.37l-2.439,4.236l-4.119,2.371L15.324,15.318z M7.524,25.308l4.519-2.482L9.202,32.918
	l-1.678,2.701V25.308z M1.129,49.43l5.396-9.401v3.719L3.782,54.054L1.129,49.43z M2.955,61.732l1.268-4.908l2.301,4.054v4.49
	L2.955,61.732z M7.524,73.552v-4.899l7.589,7.343l1.453,2.738L7.524,73.552z M25.314,90.454l-5.298-8.873l2.787,1.486l7.511,7.387
	H25.314z M37.134,95.417L33.6,91.454h4.567l3.871,2.449L37.134,95.417z M49.536,97.244l-4.644-2.912l9.933-2.878h3.94L49.536,97.244
	z M73.558,90.454H63.283l2.928-1.444l9.867-2.77L73.558,90.454z M83.548,83.542l-5.157,1.367l2.33-4.037l4.174-2.412L83.548,83.542z
	 M90.524,73.552l-4.137,2.557l2.608-10.263l1.529-2.88V73.552z M91.524,58.488v-3.964l3.034-9.695l2.45,4.602L91.524,58.488z"/>
</svg>
